<?xml version="1.0" encoding="UTF-8"?>
<svg version="1.1" viewBox="0 0 1200 1200" width="1280" height="1280" xmlns="http://www.w3.org/2000/svg">
<path transform="translate(304,253)" d="m0 0h464l19 2 14 4 17 9 13 11 9 11 8 14 6 16 2 11v21l-3 15-6 15-7 11-12 14-168 168 438 1 17 3 14 5 13 8 11 9 9 11 7 11 5 12 4 15 1 10v9l-2 14-5 16-7 13-8 10-205 205-14 9-11 5-13 4-18 2h-464l-19-2-14-4-17-9-14-12-8-10-8-14-6-16-2-11v-21l3-15 6-15 7-11 9-10 172-172-439-1-17-3-14-5-13-8-13-11-10-13-8-16-4-13-2-15v-9l2-14 5-16 7-13 8-10 204-204 13-9 13-6 13-4z"/>
</svg>
